<svg width="519" height="537" viewBox="0 0 519 537" fill="none" xmlns="http://www.w3.org/2000/svg">
<path d="M215.473 1.33329C215.473 1.99996 216.14 2.66663 216.806 2.66663C217.606 2.66663 218.14 1.99996 218.14 1.33329C218.14 0.533293 217.606 -4.08292e-05 216.806 -4.08292e-05C216.14 -4.08292e-05 215.473 0.533293 215.473 1.33329Z" fill="#496EEE" fill-opacity="0.24"/>
<path d="M256.806 1.33329C256.806 1.99996 257.74 2.66663 258.806 2.66663C259.873 2.66663 260.806 1.99996 260.806 1.33329C260.806 0.533293 259.873 -4.08292e-05 258.806 -4.08292e-05C257.74 -4.08292e-05 256.806 0.533293 256.806 1.33329Z" fill="#496EEE" fill-opacity="0.24"/>
<path d="M300.806 1.33329C300.806 1.99996 301.473 2.66663 302.14 2.66663C302.94 2.66663 303.473 1.99996 303.473 1.33329C303.473 0.533293 302.94 -4.08292e-05 302.14 -4.08292e-05C301.473 -4.08292e-05 300.806 0.533293 300.806 1.33329Z" fill="#496EEE" fill-opacity="0.24"/>
<path d="M192.806 20.8C191.473 22.2667 191.473 23.0667 192.806 24.5333C194.806 27.0667 198.14 25.8667 198.14 22.6667C198.14 19.4667 194.806 18.2667 192.806 20.8Z" fill="#496EEE" fill-opacity="0.24"/>
<path d="M234.14 20.6666C232.806 22.2666 232.806 23.0666 234.14 24.6666C236.806 28 241.473 26.6666 241.473 22.6666C241.473 18.6666 236.806 17.3333 234.14 20.6666Z" fill="#496EEE" fill-opacity="0.24"/>
<path d="M277.073 20.2667C275.073 22.2667 277.473 26.6667 280.673 26.6667C283.473 26.6667 285.073 23.7333 284.006 20.6667C283.073 18.2667 279.34 18 277.073 20.2667Z" fill="#496EEE" fill-opacity="0.24"/>
<path d="M320.806 20.8C319.473 22.2667 319.473 23.0667 320.806 24.5333C322.806 27.0667 326.14 25.8667 326.14 22.6667C326.14 19.4667 322.806 18.2667 320.806 20.8Z" fill="#496EEE" fill-opacity="0.24"/>
<path d="M150.14 22.6667C150.14 23.3333 151.073 24 152.14 24C153.206 24 154.14 23.3333 154.14 22.6667C154.14 21.8667 153.206 21.3333 152.14 21.3333C151.073 21.3333 150.14 21.8667 150.14 22.6667Z" fill="#496EEE" fill-opacity="0.24"/>
<path d="M364.806 22.6667C364.806 23.3333 365.473 24 366.14 24C366.94 24 367.473 23.3333 367.473 22.6667C367.473 21.8667 366.94 21.3333 366.14 21.3333C365.473 21.3333 364.806 21.8667 364.806 22.6667Z" fill="#496EEE" fill-opacity="0.24"/>
<path d="M211.74 38.9333C210.806 39.8666 210.14 42.1333 210.14 44C210.14 45.8666 210.806 48.1333 211.74 49.0666C215.473 52.8 223.473 49.3333 223.473 44C223.473 38.6666 215.473 35.2 211.74 38.9333Z" fill="#496EEE" fill-opacity="0.24"/>
<path d="M252.806 40.6666C251.34 43.4666 251.34 44.5333 252.806 47.3333C254.273 50.1333 255.473 50.6666 259.206 50.3999C269.073 49.5999 269.206 38.3999 259.34 37.5999C255.473 37.3333 254.406 37.7333 252.806 40.6666Z" fill="#496EEE" fill-opacity="0.24"/>
<path d="M297.073 38.9333C296.14 39.8667 295.473 42.1333 295.473 44C295.473 48.2667 297.74 50.6667 301.473 50.6667C304.806 50.6667 308.806 46.8 308.806 43.7333C308.806 38.9333 300.54 35.4667 297.073 38.9333Z" fill="#496EEE" fill-opacity="0.24"/>
<path d="M170.54 39.6C169.606 39.8667 168.806 42 168.806 44.1333C168.806 47.0667 169.606 48.1333 172.14 48.8C176.006 49.7333 179.473 47.4667 179.473 44.1333C179.473 39.7333 175.206 37.6 170.54 39.6Z" fill="#496EEE" fill-opacity="0.24"/>
<path d="M341.073 40.2667C338.006 43.3333 340.14 49.3333 344.273 49.3333C346.14 49.3333 350.14 45.7333 350.14 44C350.14 42.2667 346.14 38.6667 344.273 38.6667C343.473 38.6667 342.006 39.3333 341.073 40.2667Z" fill="#496EEE" fill-opacity="0.24"/>
<path d="M128.806 44C128.806 46 129.473 46.6667 131.206 46.4C132.406 46.1333 133.473 45.0667 133.473 44C133.473 42.9333 132.406 41.8667 131.206 41.6C129.473 41.3333 128.806 42 128.806 44Z" fill="#496EEE" fill-opacity="0.24"/>
<path d="M385.74 42.1333C383.873 44 384.806 46.8 387.206 46.4C388.406 46.1333 389.473 45.0667 389.473 44.1333C389.473 42 387.073 40.8 385.74 42.1333Z" fill="#496EEE" fill-opacity="0.24"/>
<path d="M190.006 58.4C184.006 63.3333 187.873 74.6667 195.606 74.6667C199.473 74.6667 203.473 69.8667 203.473 65.3333C203.473 60.8 199.473 56 195.606 56C194.273 56 191.74 57.0667 190.006 58.4Z" fill="#496EEE" fill-opacity="0.24"/>
<path d="M230.14 60.2667C228.673 62.6667 227.473 64.9333 227.473 65.3333C227.473 65.7333 228.673 68 230.14 70.2667C232.273 74 233.606 74.6667 237.606 74.6667C243.34 74.6667 247.473 70.8 247.473 65.3333C247.473 59.8667 243.34 56 237.606 56C233.606 56 232.273 56.6667 230.14 60.2667Z" fill="#496EEE" fill-opacity="0.24"/>
<path d="M272.806 60.2667C271.34 62.6667 270.14 64.9333 270.14 65.3333C270.14 65.7333 271.34 68 272.806 70.2667C274.94 74 276.273 74.6667 280.273 74.6667C286.006 74.6667 290.14 70.8 290.14 65.3333C290.14 59.8667 286.006 56 280.273 56C276.273 56 274.94 56.6667 272.806 60.2667Z" fill="#496EEE" fill-opacity="0.24"/>
<path d="M318.006 58.4C312.14 63.3333 315.873 74.6667 323.34 74.6667C327.073 74.6667 331.473 69.6 331.473 65.3333C331.473 62.8 330.273 60.6667 328.006 58.8C323.606 55.3333 322.006 55.3333 318.006 58.4Z" fill="#496EEE" fill-opacity="0.24"/>
<path d="M147.74 60.2667C146.806 61.2 146.14 63.4667 146.14 65.3333C146.14 67.2 146.806 69.4667 147.74 70.4C151.473 74.1333 159.473 70.6667 159.473 65.3333C159.473 60 151.473 56.5333 147.74 60.2667Z" fill="#496EEE" fill-opacity="0.24"/>
<path d="M361.606 60.8C357.473 64.8 360.406 72 366.14 72C367.606 72 369.74 70.5333 370.94 68.6666C372.94 65.6 372.94 65.0666 370.94 62C368.406 58.1333 364.673 57.7333 361.606 60.8Z" fill="#496EEE" fill-opacity="0.24"/>
<path d="M106.94 63.3333C106.006 66 107.34 69.3333 109.606 69.3333C112.273 69.3333 114.406 64.8 112.54 62.9333C110.406 60.8 107.873 60.9333 106.94 63.3333Z" fill="#496EEE" fill-opacity="0.24"/>
<path d="M406.14 63.3333C404.673 65.0666 404.673 65.8666 406.54 67.7333C409.206 70.2666 412.006 68.4 411.206 64.5333C410.673 61.3333 408.273 60.8 406.14 63.3333Z" fill="#496EEE" fill-opacity="0.24"/>
<path d="M210.54 77.2C202.807 82 203.607 92.8 212.007 96.9333C215.873 98.6667 217.207 98.8 220.54 97.4667C224.94 95.6 228.94 88.9333 227.873 85.4667C226.273 80.4 224.273 77.4667 221.207 76.1333C216.807 74.1333 215.473 74.2667 210.54 77.2Z" fill="#496EEE" fill-opacity="0.24"/>
<path d="M250.94 78.8C241.073 90.5333 255.473 105.467 267.073 95.4667C275.206 88.4 269.873 74.6667 258.806 74.6667C255.473 74.6667 253.473 75.7333 250.94 78.8Z" fill="#496EEE" fill-opacity="0.24"/>
<path d="M295.873 77.2C288.273 81.8667 288.806 92.5333 296.94 96.6667C304.673 100.667 312.806 95.6 312.806 86.8C312.673 81.4667 310.94 78.5333 306.54 76.2667C302.54 74.1333 300.806 74.2667 295.873 77.2Z" fill="#496EEE" fill-opacity="0.24"/>
<path d="M170.273 77.6C161.073 80.9333 161.34 92.4 170.54 95.8667C175.473 97.7333 180.14 95.7333 182.806 90.6667C184.806 86.8 184.806 86.2667 182.54 82.4C179.74 77.7333 174.94 75.8667 170.273 77.6Z" fill="#496EEE" fill-opacity="0.24"/>
<path d="M336.94 80.8C335.34 82.8 334.14 85.3333 334.14 86.6666C334.14 88 335.34 90.5333 336.94 92.5333C339.073 95.2 340.806 96 344.806 96C350.673 96 354.14 92.5333 354.14 86.6666C354.14 80.8 350.673 77.3333 344.806 77.3333C340.806 77.3333 339.073 78.1333 336.94 80.8Z" fill="#496EEE" fill-opacity="0.24"/>
<path d="M126.406 80.8C120.54 84.8 124.273 94.6667 131.74 94.6667C134.54 94.6667 139.473 89.6 139.473 86.6667C139.473 83.7333 134.54 78.6667 131.74 78.6667C130.406 78.6667 128.006 79.6 126.406 80.8Z" fill="#496EEE" fill-opacity="0.24"/>
<path d="M384.673 79.6C383.473 79.8667 381.74 81.6 380.806 83.3334C379.34 86.1334 379.34 87.2 380.806 89.8667C383.74 95.3334 391.073 95.0667 394.14 89.3334C396.806 84.2667 390.94 78.2667 384.673 79.6Z" fill="#496EEE" fill-opacity="0.24"/>
<path d="M85.0732 84.2667C83.0732 86.2667 85.4732 90.6667 88.6732 90.6667C91.4732 90.6667 93.0732 87.7333 92.0065 84.6667C91.0732 82.2667 87.3398 82 85.0732 84.2667Z" fill="#496EEE" fill-opacity="0.24"/>
<path d="M426.94 84.6667C425.873 87.6 427.473 90.6667 430.14 90.6667C432.806 90.6667 434.406 87.6 433.34 84.6667C432.806 83.6 431.473 82.6667 430.14 82.6667C428.806 82.6667 427.473 83.6 426.94 84.6667Z" fill="#496EEE" fill-opacity="0.24"/>
<path d="M233.34 95.3333C227.34 97.8667 224.673 101.733 224.54 107.867C224.406 120.933 240.273 126.533 248.406 116.4C256.94 106 245.473 90.1333 233.34 95.3333Z" fill="#496EEE" fill-opacity="0.24"/>
<path d="M189.34 96.8C179.74 101.6 179.873 114.667 189.74 119.333C197.606 123.067 206.006 118.8 208.273 109.867C209.073 106.8 206.273 100.267 203.206 97.7333C199.873 95.0667 193.606 94.6667 189.34 96.8Z" fill="#496EEE" fill-opacity="0.24"/>
<path d="M271.606 98.1333C268.006 101.067 267.473 102.4 267.473 108C267.473 113.6 268.006 114.933 271.606 117.867C277.606 122.933 285.206 122.667 290.273 117.2C302.14 104.533 284.806 86.9333 271.606 98.1333Z" fill="#496EEE" fill-opacity="0.24"/>
<path d="M319.873 95.6C316.006 96.4 310.14 103.333 310.14 107.333C310.14 115.067 315.74 120.533 323.34 120.267C329.206 120.133 332.806 117.733 334.94 112.533C337.606 106.133 334.806 99.3333 328.273 96.6666C325.606 95.6 323.34 94.8 323.206 94.8C322.94 94.9333 321.473 95.3333 319.873 95.6Z" fill="#496EEE" fill-opacity="0.24"/>
<path d="M144.807 100.267C138.54 107.067 143.207 118.667 152.273 118.667C158.273 118.667 163.473 113.733 163.473 108C163.473 98.8 150.94 93.6 144.807 100.267Z" fill="#496EEE" fill-opacity="0.24"/>
<path d="M358.94 100.133C356.273 102.267 355.473 104 355.473 108C355.473 117.6 366.673 122.133 373.473 115.333C383.206 105.733 369.74 91.6 358.94 100.133Z" fill="#496EEE" fill-opacity="0.24"/>
<path d="M104.406 102.4C99.873 107.467 103.206 116 109.606 116C114.14 116 118.14 112.133 118.14 108C118.14 101.067 108.94 97.3333 104.406 102.4Z" fill="#496EEE" fill-opacity="0.24"/>
<path d="M403.74 102.133C397.873 106.133 401.606 116 409.073 116C411.873 116 416.806 110.933 416.806 108C416.806 105.067 411.873 100 409.073 100C407.74 100 405.34 100.933 403.74 102.133Z" fill="#496EEE" fill-opacity="0.24"/>
<path d="M63.7397 105.6C61.7397 107.6 64.1397 112 67.3397 112C70.1397 112 71.7397 109.067 70.673 106C69.7397 103.6 66.0064 103.333 63.7397 105.6Z" fill="#496EEE" fill-opacity="0.24"/>
<path d="M448.406 106C447.206 108.933 448.806 112.133 451.34 111.733C452.673 111.467 453.473 110 453.473 108C453.473 104.267 449.606 102.667 448.406 106Z" fill="#496EEE" fill-opacity="0.24"/>
<path d="M209.473 116.267C205.473 118.667 204.14 120.267 202.406 125.067C201.473 127.733 201.34 130.533 202.006 132.533C203.206 135.467 202.94 135.6 196.406 135.467C192.54 135.467 188.273 135.867 186.806 136.533C184.673 137.467 184.406 137.467 185.873 135.867C186.673 134.933 187.473 131.867 187.473 129.2C187.473 117.6 174.006 111.867 164.94 119.467C161.34 122.4 160.806 123.733 160.806 129.333C160.806 134.933 161.34 136.267 164.94 139.2C168.406 142.133 170.273 142.933 174.14 142.933C174.54 143.067 176.673 142.533 178.806 142.133C182.006 141.333 182.54 141.467 181.206 142.8C180.273 143.733 179.473 147.067 179.473 150.133C179.473 155.733 179.34 155.867 175.206 155.6C172.806 155.467 169.606 155.867 168.14 156.4C165.74 157.2 165.473 156.8 165.873 150.8C166.273 145.067 166.006 144.133 162.14 140.933C156.273 136 152.54 135.333 146.54 138.267C135.873 143.333 136.14 158.533 146.806 163.6C150.673 165.467 152.273 165.6 155.473 164.4C159.34 162.933 159.473 162.933 158.54 166.4C158.006 168.4 157.606 171.6 157.74 173.733C158.006 176.933 157.606 177.333 154.406 177.2C152.406 177.067 149.34 177.333 147.473 177.867C144.273 178.8 144.14 178.667 144.54 172.267C144.94 166.4 144.673 165.467 140.806 162.267C134.94 157.333 131.206 156.667 125.206 159.6C114.54 164.667 114.806 179.867 125.473 184.933C129.34 186.8 130.94 186.933 134.273 185.733C138.006 184.267 138.273 184.4 137.34 187.067C136.806 188.667 136.54 192.133 136.54 194.667L136.806 199.333L130.54 199.467C125.206 199.6 123.74 200.267 119.873 204.4C116.54 208.133 115.473 210.533 115.473 214.4C115.473 217.2 116.14 220.133 116.94 220.933C118.006 222 117.073 222.267 112.94 221.733C102.94 220.4 95.4731 226.4 95.4731 236C95.4731 244.667 101.74 250.667 110.54 250.667C114.806 250.667 114.806 250.667 114.806 257.333C114.806 264 114.806 264 110.406 264C102.94 264 97.3397 268 95.4731 274.667C92.8064 283.867 99.8731 293.333 109.473 293.333H114.94V300.4L115.073 307.467L110.94 306.933C108.14 306.667 105.206 307.467 102.14 309.6C93.6064 315.467 93.4731 327.2 102.006 332.933C107.34 336.533 112.406 336.8 116.54 333.867C118.273 332.667 120.006 332.133 120.406 332.533C120.94 332.933 120.54 333.333 119.74 333.333C118.94 333.333 117.606 335.467 116.806 338C113.34 348.4 121.073 358 132.14 357.067L138.006 356.667L137.34 361.467C136.406 366.8 138.673 372.4 143.34 376.533C145.473 378.4 148.14 379.2 152.806 379.067C159.34 378.933 159.34 378.933 158.54 382.8C157.606 387.867 160.273 394.133 165.073 397.467C168.006 399.6 170.406 400.133 175.473 399.733C179.206 399.6 182.14 399.467 182.14 399.6C182.14 399.733 181.473 401.467 180.806 403.467C179.74 406.267 180.006 408.133 182.14 412.667C186.673 422.133 197.34 424.4 205.073 417.467C208.806 414.267 209.34 412.667 209.473 407.467C209.473 402.933 209.873 401.467 211.206 402C212.273 402.4 215.073 402.667 217.606 402.667C221.873 402.667 222.14 402.933 222.14 407.333C222.14 416.933 233.073 424.267 243.206 421.467C247.073 420.267 247.34 420.4 246.14 422.667C241.74 430.933 249.74 442.667 260.006 442.667C261.873 442.667 265.473 440.8 268.14 438.4C272.806 434.4 272.94 433.733 272.54 427.333L272.14 420.4L276.14 421.6C284.406 423.867 292.806 419.467 295.473 411.2C296.406 408.667 296.673 405.6 296.273 404.4C295.606 402.267 296.406 402 302.54 402H309.473L308.94 406.933C308.54 411.2 309.206 412.667 313.206 416.667C316.806 420.267 318.94 421.333 322.806 421.333C332.673 421.333 340.14 411.467 336.94 402.4C335.073 397.067 335.073 396.4 337.073 398.4C338.006 399.333 341.473 400 344.94 400C349.873 400 351.873 399.333 354.54 396.533C358.273 392.8 360.273 386 359.073 381.067C358.273 378.133 358.54 378 365.206 378.4C371.34 378.8 372.673 378.4 375.873 375.2C380.14 370.933 381.473 366.933 380.406 360.8L379.74 356.4L386.006 357.067C391.74 357.6 392.94 357.2 396.94 353.6C400.94 350 401.473 348.8 401.473 342.667C401.473 336.4 401.073 335.333 396.806 331.867C393.606 329.2 390.806 328 387.473 328C382.806 328 382.673 328 382.806 322C382.806 316.4 383.073 316 386.406 316C388.406 316 391.473 315.467 393.206 314.8C396.406 313.6 396.406 313.6 395.206 317.867C393.206 324.133 396.673 330.933 403.34 334C409.206 336.533 412.406 336 418.14 331.067C421.606 328.267 422.14 326.8 422.14 321.333C422.14 315.733 421.606 314.4 418.006 311.467C412.806 307.067 409.073 306.133 404.273 308C400.94 309.2 400.673 309.067 401.473 307.067C403.34 302.533 403.74 297.6 402.273 294.933C400.94 292.533 401.206 292.4 406.806 292.933C411.34 293.467 413.473 293.067 416.673 290.8C428.54 282.267 422.006 262.8 407.606 264.267L402.54 264.667L403.206 259.2C403.473 256.133 403.073 252.4 402.14 250.8C400.673 248 400.806 247.867 403.34 249.2C407.073 251.333 411.206 251.067 415.473 248.4C420.273 245.6 422.54 241.333 422.406 235.733C422.14 224.533 412.54 218.8 401.606 223.333C399.473 224.267 399.34 224.133 400.673 221.6C404.006 215.467 401.606 206.533 395.473 201.733C394.406 200.8 390.673 200 387.206 200H380.94L381.74 195.6C382.14 192.667 381.606 189.467 380.14 186.8C378.006 182.533 378.006 182.533 380.673 183.867C386.006 186.8 392.806 185.6 396.94 181.2C403.74 173.867 401.206 163.067 391.873 159.2C388.14 157.6 386.806 157.6 383.206 159.067C376.806 161.867 374.006 165.6 373.873 171.733C373.873 174.667 374.273 177.733 374.673 178.533C375.34 179.467 374.273 179.467 371.473 178.533C369.206 177.733 365.74 177.333 363.74 177.6C360.273 178.133 360.14 177.867 360.54 173.2C360.806 170.533 360.406 167.067 359.606 165.467C357.873 162.267 358.406 162 362.273 164.133C368.94 167.6 379.473 159.2 379.473 150.267C379.473 141.067 368.94 133.733 361.206 137.733C353.74 141.6 350.806 147.6 352.806 154.667C353.873 158.4 353.74 158.533 351.206 157.2C349.74 156.4 346.14 156 343.34 156.267C338.673 156.667 338.273 156.533 338.94 153.733C340.006 149.6 337.34 142.267 333.34 138.533C330.806 136.133 328.54 135.467 323.073 135.467H316.14V128.933C316.14 123.333 315.606 122 311.74 118.533C307.073 114.4 300.94 113.467 295.073 116.133C290.94 118 287.073 124.8 287.206 129.867C287.34 134 287.206 134 280.94 134H274.406L273.74 127.6C272.94 119.2 268.006 114.667 259.74 114.667C250.14 114.667 242.14 122.8 243.74 130.933C244.273 133.733 243.873 134 237.606 134H230.806V128.133C230.673 123.333 230.006 121.733 226.406 118.533C221.74 114.4 214.54 113.333 209.473 116.267ZM217.34 144C221.34 144 221.606 144.267 221.073 148.4C220.673 152.4 220.14 152.8 216.006 152.8C212.406 152.8 211.473 152.267 211.473 150.267C211.473 148.933 210.806 146.533 210.006 145.067C208.673 142.667 208.806 142.4 210.806 143.067C212.006 143.6 214.94 144 217.34 144ZM307.74 148.267C307.206 153.067 306.94 153.333 302.673 153.333C299.073 153.333 298.14 152.8 298.14 150.8C298.14 149.333 297.74 147.333 297.34 146.133C296.806 144.667 297.873 144.133 302.406 143.733C305.473 143.467 308.14 143.333 308.273 143.333C308.406 143.333 308.14 145.6 307.74 148.267ZM263.74 148C263.206 151.333 262.54 152 259.34 152C256.94 152 255.473 151.333 255.473 150.133C255.473 149.067 255.073 147.333 254.673 146.133C254.006 144.4 254.806 144 259.073 144C264.14 144 264.273 144.133 263.74 148ZM197.873 170.133C197.606 172.667 196.806 173.333 193.873 173.333C190.673 173.333 190.14 172.8 190.14 169.6C190.14 166.133 190.54 165.867 194.14 166.4C197.34 166.8 198.006 167.6 197.873 170.133ZM328.806 169.733C328.806 174 328.54 174.133 324.806 173.6C321.74 173.2 320.806 172.4 320.806 170C320.806 167.067 321.34 166.667 327.873 165.467C328.406 165.467 328.806 167.333 328.806 169.733ZM239.473 170C239.473 171.067 238.54 172 237.473 172C236.406 172 235.473 171.067 235.473 170C235.473 168.933 236.406 168 237.473 168C238.54 168 239.473 168.933 239.473 170ZM283.473 170C283.473 171.067 282.673 172 281.606 172C280.54 172 279.473 171.067 278.94 170C278.406 168.667 279.073 168 280.806 168C282.273 168 283.473 168.933 283.473 170ZM174.006 189.333C174.54 189.333 174.94 190.533 174.94 192C174.94 193.867 174.006 194.667 171.873 194.667C169.473 194.667 168.806 193.867 168.806 191.2C168.806 188.533 169.34 187.867 170.94 188.533C172.14 188.933 173.473 189.333 174.006 189.333ZM350.14 192.133C350.14 195.333 349.74 196.133 348.006 195.467C346.806 195.067 345.073 194.667 344.006 194.667C342.94 194.667 342.14 193.333 342.14 191.333C342.14 188.533 342.806 188 346.14 188C349.74 188 350.14 188.4 350.14 192.133ZM153.34 209.733C153.74 209.2 154.14 210.8 154.14 213.067C154.14 216.667 153.606 217.333 150.806 217.333C148.406 217.333 147.473 216.667 147.473 214.8C147.473 213.333 147.073 211.2 146.673 210.133C146.006 208.267 146.406 208.133 149.206 209.2C151.073 209.867 152.94 210.133 153.34 209.733ZM371.873 212.933C371.473 215.733 371.073 218.133 370.94 218.267C370.806 218.4 369.206 218.133 367.206 217.733C364.14 217.2 363.473 216.267 363.473 213.2C363.473 210.133 364.14 209.467 367.206 208.933C369.206 208.667 371.206 208.267 371.74 208.133C372.273 208.133 372.273 210.267 371.873 212.933ZM395.473 230.8C394.54 232.4 394.14 235.733 394.54 238.267C395.206 242 394.94 242.8 393.34 242.133C392.14 241.733 389.606 241.333 387.74 241.333C384.406 241.333 384.14 240.933 384.006 235.333L383.873 229.333H388.94C391.74 229.333 394.406 228.667 394.806 227.867C396.54 225.2 397.073 227.733 395.473 230.8ZM131.873 230.667C133.606 230.667 134.14 231.733 134.14 235.333C134.14 239.2 133.606 240 131.34 240C129.873 240 127.606 240.533 126.273 241.2C124.273 242.4 124.006 241.733 124.006 235.867C124.006 229.733 124.273 229.2 126.673 229.867C128.273 230.267 130.54 230.667 131.873 230.667ZM347.473 234.667C347.473 235.333 346.806 236 346.006 236C345.34 236 345.073 235.333 345.473 234.667C345.873 233.867 346.54 233.333 346.94 233.333C347.206 233.333 347.473 233.867 347.473 234.667ZM371.473 256.8C371.473 259.067 370.806 260 368.806 260C366.94 260 366.14 259.067 366.14 256.933C366.14 254.8 366.94 253.867 368.806 253.733C370.806 253.6 371.473 254.267 371.473 256.8ZM152.806 256.533C152.806 258.533 149.606 260.267 148.273 259.067C146.54 257.2 147.606 254.667 150.14 254.667C151.606 254.667 152.806 255.467 152.806 256.533ZM131.073 274.667C132.806 274.667 133.473 275.733 133.473 278.533C133.473 281.733 132.806 282.533 128.806 283.6L124.14 284.8V278.533C124.14 273.067 124.406 272.4 126.406 273.467C127.606 274.133 129.74 274.667 131.073 274.667ZM394.806 278.667C394.806 284.8 394.54 285.333 392.14 284.8C390.673 284.4 388.273 284 386.806 284C384.406 284 384.14 283.333 384.54 278.8C385.073 274 385.473 273.467 389.206 272.933C391.606 272.667 393.74 272.267 394.14 272.267C394.54 272.133 394.806 275.067 394.806 278.667ZM150.673 298.133C153.873 299.333 153.34 304 150.14 304C148.14 304 147.473 303.067 147.473 300.667C147.473 297.067 147.606 296.933 150.673 298.133ZM371.473 300.667C371.473 303.067 370.806 304 368.806 304C366.806 304 366.14 303.067 366.14 300.667C366.14 298.267 366.806 297.333 368.806 297.333C370.806 297.333 371.473 298.267 371.473 300.667ZM132.673 316.667C134.406 316.133 134.806 317.067 134.806 322L134.94 328H129.873C127.206 328 124.54 328.533 124.14 329.333C123.74 330 122.673 330.667 121.873 330.667C120.94 330.667 121.073 330 122.14 328.667C122.94 327.6 123.74 324.133 123.74 320.8C123.74 314.933 123.74 314.8 127.073 316.133C128.94 316.8 131.473 317.067 132.673 316.667ZM174.14 322.667C174.14 323.333 173.606 324 172.94 324C172.14 324 171.206 323.333 170.806 322.667C170.406 321.867 170.94 321.333 172.006 321.333C173.206 321.333 174.14 321.867 174.14 322.667ZM348.806 322.667C348.806 323.333 347.873 324 346.806 324C345.74 324 344.806 323.333 344.806 322.667C344.806 321.867 345.74 321.333 346.806 321.333C347.873 321.333 348.806 321.867 348.806 322.667ZM372.54 341.067C372.406 343.067 372.806 346 373.34 347.6C374.14 350.267 373.873 350.4 368.54 349.733C365.34 349.333 362.806 348.933 362.673 348.8C362.54 348.8 362.806 346.4 363.073 343.733C363.74 339.333 364.273 338.8 368.006 338.267C370.273 338 372.273 337.6 372.406 337.6C372.54 337.467 372.54 338.933 372.54 341.067ZM155.473 344.133C155.473 347.867 154.94 349.067 153.74 348.533C152.673 348.133 150.273 348.533 148.273 349.333C144.673 350.667 144.54 350.533 145.34 347.733C145.74 346 146.14 343.333 146.14 341.733C146.14 339.2 146.806 338.8 150.806 338.933C155.34 339.067 155.473 339.333 155.473 344.133ZM195.473 344C195.473 344.667 194.94 345.333 194.14 345.333C193.473 345.333 192.806 344.667 192.806 344C192.806 343.2 193.473 342.667 194.14 342.667C194.94 342.667 195.473 343.2 195.473 344ZM326.14 344.667C326.14 345.733 325.606 346.667 324.806 346.667C324.14 346.667 323.473 345.733 323.473 344.667C323.473 343.6 324.14 342.667 324.806 342.667C325.606 342.667 326.14 343.6 326.14 344.667ZM176.806 366C176.806 370.133 176.54 370.4 171.473 370.933C166.673 371.333 166.273 371.2 167.073 368.667C167.606 367.2 168.006 364.8 167.873 363.333C167.873 360.933 168.406 360.667 172.273 361.067C176.406 361.6 176.806 362 176.806 366ZM350.14 363.467C350.14 365.333 350.673 368 351.473 369.333C352.673 371.467 352.273 371.733 347.073 371.067C344.006 370.667 341.34 370.133 341.073 370C340.94 369.867 341.206 367.867 341.606 365.6C342.406 361.733 343.073 361.333 349.206 360.133C349.74 360.133 350.14 361.6 350.14 363.467ZM218.14 366C218.14 367.067 217.206 368 216.14 368C215.073 368 214.14 367.067 214.14 366C214.14 364.933 215.073 364 216.14 364C217.206 364 218.14 364.933 218.14 366ZM259.073 366.933C258.673 368 258.273 367.6 258.273 366.133C258.14 364.667 258.54 363.867 258.94 364.4C259.34 364.8 259.473 366 259.073 366.933ZM304.806 366C304.806 367.067 303.873 368 302.806 368C301.74 368 300.806 367.067 300.806 366C300.806 364.933 301.74 364 302.806 364C303.873 364 304.806 364.933 304.806 366ZM196.14 382.667C198.673 382.667 199.34 383.467 199.74 387.2C200.273 391.733 200.273 391.733 194.14 392.267C190.806 392.667 188.14 392.8 188.006 392.8C188.006 392.667 188.14 390.133 188.54 386.933C188.94 382.533 189.606 381.333 191.073 381.867C192.14 382.267 194.406 382.667 196.14 382.667ZM329.473 385.2C329.606 387.067 330.006 390.133 330.673 392C331.606 394.667 331.473 395.067 330.006 393.6C329.073 392.8 325.873 392 323.073 392C318.273 392 317.873 391.733 318.673 388.933C319.073 387.333 319.473 385.067 319.473 384C319.473 382.667 321.073 382 324.54 381.867C329.073 381.6 329.473 382 329.473 385.2ZM240.806 385.867C240.806 386.933 241.073 388.533 241.473 389.6C242.006 390.8 240.806 391.333 237.473 391.467C233.873 391.467 232.94 391.067 233.473 389.6C233.873 388.667 234.14 386.933 234.14 385.867C234.14 384.8 235.473 384 237.473 384C239.473 384 240.806 384.8 240.806 385.867ZM285.073 387.733C285.606 391.2 285.34 391.467 281.206 391.467C277.206 391.333 276.806 390.933 277.073 387.6C277.34 384.667 278.006 384 280.94 384C283.873 384 284.673 384.667 285.073 387.733ZM264.806 407.067C264.806 409.2 266.006 412.667 267.473 414.667L270.14 418.4L264.94 415.6C260.406 413.067 259.073 412.933 255.473 414.267C251.606 415.733 251.34 415.6 252.273 413.6C252.806 412.4 253.34 409.467 253.34 407.2C253.473 403.2 253.74 403.067 259.073 403.2C264.406 403.333 264.806 403.6 264.806 407.067Z" fill="#496EEE" fill-opacity="0.24"/>
<path d="M335.34 119.867C329.873 125.467 329.873 133.333 335.473 138.933C339.206 142.533 340.273 142.933 345.606 142.267C357.606 140.933 362.273 128.667 354.14 120.133C348.54 114.4 340.94 114.267 335.34 119.867Z" fill="#496EEE" fill-opacity="0.24"/>
<path d="M125.206 119.867C117.606 124.533 118.14 135.2 126.273 139.333C134.006 143.333 142.14 138.267 142.14 129.467C142.006 124.133 140.273 121.2 135.873 118.933C131.873 116.8 130.14 116.933 125.206 119.867Z" fill="#496EEE" fill-opacity="0.24"/>
<path d="M383.74 118.8C378.673 120.667 376.673 123.733 376.54 129.333C376.406 138.933 386.673 143.467 394.673 137.2C403.74 130.133 394.54 114.8 383.74 118.8Z" fill="#496EEE" fill-opacity="0.24"/>
<path d="M83.0731 123.733C78.5398 128.8 81.8731 137.333 88.2731 137.333C92.8065 137.333 96.8065 133.467 96.8065 129.333C96.8065 122.4 87.6065 118.667 83.0731 123.733Z" fill="#496EEE" fill-opacity="0.24"/>
<path d="M425.073 123.467C420.94 126.267 421.073 132.667 425.34 135.333C432.006 139.733 440.273 133.2 436.806 126.533C433.74 120.933 430.14 119.867 425.073 123.467Z" fill="#496EEE" fill-opacity="0.24"/>
<path d="M43.0731 127.333C41.8731 130.267 43.4731 133.467 46.0065 133.067C47.3398 132.8 48.1398 131.333 48.1398 129.333C48.1398 125.6 44.2731 124 43.0731 127.333Z" fill="#496EEE" fill-opacity="0.24"/>
<path d="M470.14 129.333C470.14 131.333 470.806 132 472.54 131.733C473.74 131.467 474.806 130.4 474.806 129.333C474.806 128.267 473.74 127.2 472.54 126.933C470.806 126.667 470.14 127.333 470.14 129.333Z" fill="#496EEE" fill-opacity="0.24"/>
<path d="M103.873 141.2C96.2731 145.867 96.8065 156.533 104.94 160.667C112.673 164.667 120.806 159.6 120.806 150.8C120.673 145.467 118.94 142.533 114.54 140.267C110.54 138.133 108.806 138.267 103.873 141.2Z" fill="#496EEE" fill-opacity="0.24"/>
<path d="M400.807 142.933C394.54 149.733 399.207 161.333 408.273 161.333C414.273 161.333 419.473 156.4 419.473 150.667C419.473 141.467 406.94 136.267 400.807 142.933Z" fill="#496EEE" fill-opacity="0.24"/>
<path d="M62.1398 145.333C60.6731 146.8 59.4731 149.2 59.4731 150.667C59.4731 154.667 64.5398 159.067 67.8731 158.133C69.4731 157.733 71.2065 157.333 71.6065 157.333C72.0065 157.333 73.0731 155.867 73.8731 154C76.4065 148.4 72.4065 142.8 65.8731 142.667C65.2065 142.667 63.6065 143.867 62.1398 145.333Z" fill="#496EEE" fill-opacity="0.24"/>
<path d="M445.34 147.333C443.34 150.4 443.34 150.933 445.34 154C450.407 161.6 460.807 155.6 457.073 147.333C455.873 144.8 454.54 144 451.473 144C448.673 144 446.94 145.067 445.34 147.333Z" fill="#496EEE" fill-opacity="0.24"/>
<path d="M22.673 149.467C21.3396 151.733 24.4063 154.267 26.273 152.4C27.873 150.8 26.8063 148 24.8063 148C24.1396 148 23.2063 148.667 22.673 149.467Z" fill="#496EEE" fill-opacity="0.24"/>
<path d="M491.473 150.4C491.473 152.267 492.94 153.2 494.94 152.4C497.74 151.333 497.206 149.333 494.14 149.333C492.673 149.333 491.473 149.867 491.473 150.4Z" fill="#496EEE" fill-opacity="0.24"/>
<path d="M83.4729 162.267C80.1396 163.6 78.2729 167.067 78.2729 172C78.2729 178.4 80.9396 181.467 87.2063 182.267C91.7396 182.933 93.2063 182.4 96.0063 179.6C104.673 170.8 95.2063 157.733 83.4729 162.267Z" fill="#496EEE" fill-opacity="0.24"/>
<path d="M425.206 162.667C419.606 164.933 417.74 172.933 421.473 178.267C425.873 184.667 436.273 182.933 439.74 175.333C441.606 171.067 439.073 164.933 434.673 162.8C430.806 161.067 429.206 161.067 425.206 162.667Z" fill="#496EEE" fill-opacity="0.24"/>
<path d="M41.6064 167.467C37.4731 171.467 40.4064 178.667 46.1398 178.667C47.6064 178.667 49.7398 177.2 50.9398 175.333C52.9398 172.267 52.9398 171.733 50.9398 168.667C48.4064 164.8 44.6731 164.4 41.6064 167.467Z" fill="#496EEE" fill-opacity="0.24"/>
<path d="M468.94 167.867C467.206 169.6 466.673 171.467 467.073 173.333C468.006 176.8 470.406 177.867 474.806 176.8C479.473 175.6 479.473 169.067 474.806 166.933C472.006 165.6 471.073 165.733 468.94 167.867Z" fill="#496EEE" fill-opacity="0.24"/>
<path d="M2.13965 172C2.13965 172.667 2.80632 173.333 3.47298 173.333C4.27298 173.333 4.80632 172.667 4.80632 172C4.80632 171.2 4.27298 170.667 3.47298 170.667C2.80632 170.667 2.13965 171.2 2.13965 172Z" fill="#496EEE" fill-opacity="0.24"/>
<path d="M101.073 183.333C97.3397 186.4 96.8064 187.733 96.8064 193.333C96.8064 198.933 97.3397 200.267 100.94 203.2C113.473 213.867 130.673 197.733 120.406 184.933C115.873 179.2 106.94 178.4 101.073 183.333Z" fill="#496EEE" fill-opacity="0.24"/>
<path d="M402.673 181.333C395.473 184.267 393.206 195.467 398.673 201.6C402.673 206.4 408.54 207.6 414.406 204.8C430.14 197.333 418.94 174.8 402.673 181.333Z" fill="#496EEE" fill-opacity="0.24"/>
<path d="M59.6064 187.467C58.0064 189.467 56.8064 192 56.8064 193.333C56.8064 194.667 58.0064 197.2 59.6064 199.2C61.7397 201.867 63.4731 202.667 67.4731 202.667C73.3397 202.667 76.8064 199.2 76.8064 193.333C76.8064 187.467 73.3397 184 67.4731 184C63.4731 184 61.7397 184.8 59.6064 187.467Z" fill="#496EEE" fill-opacity="0.24"/>
<path d="M445.073 186.667C439.073 192.267 443.34 202.667 451.606 202.667C456.54 202.667 461.34 196.8 460.14 192C458.14 184.133 450.673 181.467 445.073 186.667Z" fill="#496EEE" fill-opacity="0.24"/>
<path d="M20.4065 190.267C18.6732 192 19.4732 195.867 21.8732 197.2C25.7398 199.2 30.6732 195.467 28.8065 191.867C27.4732 189.467 22.2732 188.4 20.4065 190.267Z" fill="#496EEE" fill-opacity="0.24"/>
<path d="M490.406 190.933C488.406 192.933 490.806 197.333 494.006 197.333C496.806 197.333 498.406 194.4 497.34 191.333C496.406 188.933 492.673 188.667 490.406 190.933Z" fill="#496EEE" fill-opacity="0.24"/>
<path d="M78.9396 206.8C74.4063 212.133 74.4063 217.467 79.2063 222.8C82.0063 226 84.0063 226.933 87.7396 226.933C93.873 226.933 97.873 224.667 99.473 220.533C103.34 210.533 98.4063 202.667 88.273 202.667C83.3396 202.667 81.873 203.333 78.9396 206.8Z" fill="#496EEE" fill-opacity="0.24"/>
<path d="M421.473 206.133C418.273 209.067 417.873 210.267 418.54 215.6C419.34 223.067 423.206 226.533 430.406 226.667C434.14 226.667 436.006 225.733 438.673 222.533C440.673 220.267 442.14 216.8 442.14 214.667C442.14 212.533 440.673 209.067 438.673 206.8C434.14 201.333 426.94 201.067 421.473 206.133Z" fill="#496EEE" fill-opacity="0.24"/>
<path d="M40.2732 208.8C36.1399 212.8 38.6732 222.267 43.8732 222.8C49.6065 223.333 54.1399 219.733 54.1399 214.667C54.1399 207.867 45.0732 204 40.2732 208.8Z" fill="#496EEE" fill-opacity="0.24"/>
<path d="M467.74 208.8C463.606 211.6 463.74 218 468.14 220.8C474.806 225.2 483.073 218.667 479.473 211.867C476.406 206.267 472.806 205.2 467.74 208.8Z" fill="#496EEE" fill-opacity="0.24"/>
<path d="M0.806396 214.667C0.806396 216.667 1.47306 217.333 3.2064 217.067C4.4064 216.8 5.47306 215.733 5.47306 214.667C5.47306 213.6 4.4064 212.533 3.2064 212.267C1.47306 212 0.806396 212.667 0.806396 214.667Z" fill="#496EEE" fill-opacity="0.24"/>
<path d="M513.473 213.333C512.273 215.333 514.006 217.333 516.14 216.4C517.206 216 518.14 215.2 518.14 214.667C518.14 213.067 514.273 212 513.473 213.333Z" fill="#496EEE" fill-opacity="0.24"/>
<path d="M59.6065 227.867C55.3398 231.467 55.3398 240.4 59.4732 244C66.8065 250.4 78.1398 245.733 78.1398 236.4C78.1398 227.067 66.6732 221.867 59.6065 227.867Z" fill="#496EEE" fill-opacity="0.24"/>
<path d="M444.406 228C437.873 233.2 440.54 244.133 448.673 246C455.34 247.467 462.006 242.4 462.006 236C462.14 227.467 451.34 222.533 444.406 228Z" fill="#496EEE" fill-opacity="0.24"/>
<path d="M20.0063 232.667C18.0063 235.733 18.0063 236.267 20.0063 239.333C23.873 245.067 30.1397 242.933 30.1397 235.733C30.1397 233.467 29.2063 231.6 27.6063 230.667C23.7397 228.667 22.4063 228.933 20.0063 232.667Z" fill="#496EEE" fill-opacity="0.24"/>
<path d="M490.54 231.6C489.606 231.867 488.806 234 488.806 236.133C488.806 239.067 489.606 240.133 492.14 240.8C496.006 241.733 499.473 239.467 499.473 236.133C499.473 231.733 495.206 229.6 490.54 231.6Z" fill="#496EEE" fill-opacity="0.24"/>
<path d="M82.673 245.333C74.8063 248.4 73.2063 259.867 79.473 266.667C83.2063 270.533 84.1396 270.933 89.473 270.4C95.473 269.6 97.873 268.133 100.54 263.067C106.406 252.267 94.5396 240.533 82.673 245.333Z" fill="#496EEE" fill-opacity="0.24"/>
<path d="M424.006 246C414.406 250.933 414.54 264 424.406 268.667C432.273 272.4 440.673 268.133 442.94 259.2C443.74 256.133 440.94 249.6 437.74 246.933C434.54 244.267 428.406 243.867 424.006 246Z" fill="#496EEE" fill-opacity="0.24"/>
<path d="M39.7398 250.667C35.8732 254.267 35.8732 260.4 39.7398 264C45.6065 269.467 54.5398 265.467 54.5398 257.333C54.5398 249.2 45.6065 245.2 39.7398 250.667Z" fill="#496EEE" fill-opacity="0.24"/>
<path d="M467.34 250.4C465.34 252.133 464.406 254.4 464.406 257.2C464.406 264.8 471.473 268.533 477.206 263.867C482.006 260.133 482.006 254.533 477.34 250.8C472.94 247.333 471.34 247.333 467.34 250.4Z" fill="#496EEE" fill-opacity="0.24"/>
<path d="M0.406388 255.333C-0.793612 258.267 0.806388 261.467 3.33972 261.067C4.67305 260.8 5.47305 259.333 5.47305 257.333C5.47305 253.6 1.60639 252 0.406388 255.333Z" fill="#496EEE" fill-opacity="0.24"/>
<path d="M512.806 257.333C512.806 259.333 513.473 260 515.206 259.733C516.406 259.467 517.473 258.4 517.473 257.333C517.473 256.267 516.406 255.2 515.206 254.933C513.473 254.667 512.806 255.333 512.806 257.333Z" fill="#496EEE" fill-opacity="0.24"/>
<path d="M61.2064 269.2C53.6064 273.867 54.1397 284.533 62.273 288.667C70.0064 292.667 78.1397 287.6 78.1397 278.8C78.0064 273.467 76.273 270.533 71.873 268.267C67.873 266.133 66.1397 266.267 61.2064 269.2Z" fill="#496EEE" fill-opacity="0.24"/>
<path d="M446.14 268.933C442.806 270.267 440.94 273.733 440.94 278.667C440.94 285.067 443.606 288.133 449.873 288.933C454.406 289.6 455.873 289.067 458.673 286.267C467.34 277.467 457.873 264.4 446.14 268.933Z" fill="#496EEE" fill-opacity="0.24"/>
<path d="M20.2732 274.133C16.1398 278.133 19.0732 285.333 24.8065 285.333C26.2732 285.333 28.4065 283.867 29.6065 282C31.6065 278.933 31.6065 278.4 29.6065 275.333C27.0732 271.467 23.3398 271.067 20.2732 274.133Z" fill="#496EEE" fill-opacity="0.24"/>
<path d="M491.073 273.733C486.806 277.2 487.873 284 492.806 284C497.473 284 499.473 282.4 499.473 278.8C499.473 274.267 494.273 271.2 491.073 273.733Z" fill="#496EEE" fill-opacity="0.24"/>
<path d="M83.473 287.6C82.4063 288.133 80.1396 290 78.5396 291.867C72.4063 298.933 76.4063 311.067 85.3396 312.8C93.7396 314.267 102.14 307.867 102.14 300C102.14 291.333 91.7396 284.4 83.473 287.6Z" fill="#496EEE" fill-opacity="0.24"/>
<path d="M426.806 287.733C416.673 291.067 413.74 300.533 420.54 308.133C426.94 315.2 437.873 313.333 441.606 304.533C444.273 298.133 441.473 291.333 434.94 288.667C432.273 287.6 430.006 286.667 429.873 286.8C429.606 286.933 428.273 287.333 426.806 287.733Z" fill="#496EEE" fill-opacity="0.24"/>
<path d="M40.1397 294C38.2731 295.733 36.8064 298.4 36.8064 300C36.8064 303.467 42.5397 309.333 45.7397 309.333C50.6731 309.333 54.1397 305.467 54.1397 300C54.1397 291.2 46.2731 287.733 40.1397 294Z" fill="#496EEE" fill-opacity="0.24"/>
<path d="M466.94 294.133C465.74 295.2 464.806 297.867 464.806 300C464.806 304.8 467.873 308 472.673 308C479.873 308 483.606 298.933 478.406 294.267C475.34 291.467 469.606 291.333 466.94 294.133Z" fill="#496EEE" fill-opacity="0.24"/>
<path d="M0.406388 298C-0.793612 300.933 0.806388 304.133 3.33972 303.733C4.67305 303.467 5.47305 302 5.47305 300C5.47305 296.267 1.60639 294.667 0.406388 298Z" fill="#496EEE" fill-opacity="0.24"/>
<path d="M512.806 300C512.806 302 513.473 302.667 515.206 302.4C516.406 302.133 517.473 301.067 517.473 300C517.473 298.933 516.406 297.867 515.206 297.6C513.473 297.333 512.806 298 512.806 300Z" fill="#496EEE" fill-opacity="0.24"/>
<path d="M60.2731 313.467C57.6064 315.6 56.8064 317.333 56.8064 321.333C56.8064 330.933 68.0064 335.467 74.8064 328.667C84.5397 319.067 71.0731 304.933 60.2731 313.467Z" fill="#496EEE" fill-opacity="0.24"/>
<path d="M446.806 312.267C438.673 317.067 438.806 326.133 447.073 330.533C453.34 333.733 461.206 328.533 461.206 321.2C461.206 314.133 452.673 308.8 446.806 312.267Z" fill="#496EEE" fill-opacity="0.24"/>
<path d="M20.8063 317.333C19.3396 318.8 18.1396 320.533 18.1396 321.333C18.1396 322 19.3396 323.867 20.8063 325.333C24.4063 328.933 30.1396 326.533 30.1396 321.333C30.1396 316.133 24.4063 313.733 20.8063 317.333Z" fill="#496EEE" fill-opacity="0.24"/>
<path d="M490.406 317.6C487.34 320.667 489.473 326.667 493.606 326.667C495.473 326.667 499.473 323.067 499.473 321.333C499.473 319.6 495.473 316 493.606 316C492.806 316 491.34 316.667 490.406 317.6Z" fill="#496EEE" fill-opacity="0.24"/>
<path d="M80.8065 333.333C78.0065 335.467 77.4731 336.933 77.4731 342.667C77.4731 348.4 78.0065 349.867 80.8065 352C88.2731 357.733 98.8065 353.333 100.406 343.733C101.073 339.467 100.54 338.267 97.0731 334.667C92.2731 329.867 85.8731 329.333 80.8065 333.333Z" fill="#496EEE" fill-opacity="0.24"/>
<path d="M423.873 333.2C416.14 338 416.94 348.8 425.34 352.933C431.473 355.733 437.073 353.6 440.14 347.2C442.14 343.067 442.14 342.267 440.14 338.133C438.14 334 433.473 330.667 429.74 330.667C428.806 330.667 426.273 331.867 423.873 333.2Z" fill="#496EEE" fill-opacity="0.24"/>
<path d="M41.0731 336.8C35.2064 340.8 38.9397 350.667 46.4064 350.667C49.2064 350.667 54.1397 345.6 54.1397 342.667C54.1397 339.733 49.2064 334.667 46.4064 334.667C45.0731 334.667 42.6731 335.6 41.0731 336.8Z" fill="#496EEE" fill-opacity="0.24"/>
<path d="M466.673 339.333C464.673 342.4 464.673 342.933 466.673 346C468.14 348.267 470.14 349.333 472.54 349.333C477.206 349.333 479.473 347.2 479.473 342.667C479.473 338.133 477.206 336 472.54 336C470.14 336 468.14 337.067 466.673 339.333Z" fill="#496EEE" fill-opacity="0.24"/>
<path d="M1.47297 341.333C0.272968 343.333 2.0063 345.333 4.13963 344.4C5.2063 344 6.13963 343.2 6.13963 342.667C6.13963 341.067 2.27297 340 1.47297 341.333Z" fill="#496EEE" fill-opacity="0.24"/>
<path d="M512.806 342.667C512.806 343.333 513.74 344 514.806 344C515.873 344 516.806 343.333 516.806 342.667C516.806 341.867 515.873 341.333 514.806 341.333C513.74 341.333 512.806 341.867 512.806 342.667Z" fill="#496EEE" fill-opacity="0.24"/>
<path d="M104.006 352.8C94.273 357.6 94.5397 370.667 104.406 375.333C112.14 379.067 119.34 375.733 122.14 367.2C123.74 362.667 121.873 356.933 117.873 353.733C114.54 351.067 108.273 350.667 104.006 352.8Z" fill="#496EEE" fill-opacity="0.24"/>
<path d="M401.34 354C391.206 360.933 396.406 376 408.806 376C416.806 376 422.273 368.667 420.273 360.667C418.273 353.067 407.873 349.333 401.34 354Z" fill="#496EEE" fill-opacity="0.24"/>
<path d="M61.0731 357.333C57.2064 360.933 57.2064 367.067 61.0731 370.667C66.9398 376.133 75.8731 372.133 75.8731 364C75.8731 355.867 66.9398 351.867 61.0731 357.333Z" fill="#496EEE" fill-opacity="0.24"/>
<path d="M446.006 357.067C444.006 358.8 443.073 361.067 443.073 364C443.073 368.4 447.073 373.333 450.806 373.333C454.406 373.333 459.473 367.867 459.473 364C459.473 361.467 458.273 359.2 456.006 357.467C451.606 354 450.006 354 446.006 357.067Z" fill="#496EEE" fill-opacity="0.24"/>
<path d="M21.3398 362C20.1398 365.067 21.7398 368 24.6731 368C27.4731 368 29.0731 365.067 28.0064 362C27.4731 360.933 26.0064 360 24.6731 360C23.2064 360 21.7398 360.933 21.3398 362Z" fill="#496EEE" fill-opacity="0.24"/>
<path d="M491.607 361.733C489.607 364.267 491.207 368.267 494.007 367.733C495.207 367.467 496.14 366 496.14 364.133C496.14 360.267 493.873 359.2 491.607 361.733Z" fill="#496EEE" fill-opacity="0.24"/>
<path d="M125.34 373.2C118.406 376.267 116.006 386.667 120.806 393.467C128.006 403.333 144.806 397.2 144.806 384.667C144.806 376.933 132.94 370 125.34 373.2Z" fill="#496EEE" fill-opacity="0.24"/>
<path d="M381.34 374C371.74 378.933 371.873 392 381.74 396.667C389.606 400.4 398.006 396.133 400.273 387.2C401.073 384.133 398.273 377.6 395.073 374.933C391.873 372.267 385.74 371.867 381.34 374Z" fill="#496EEE" fill-opacity="0.24"/>
<path d="M81.073 379.067C74.9397 385.6 79.7397 394.667 89.2063 394.667C94.673 394.667 98.1397 391.067 98.1397 385.333C98.1397 376.4 87.3397 372.4 81.073 379.067Z" fill="#496EEE" fill-opacity="0.24"/>
<path d="M422.14 380.267C420.673 382.667 419.473 384.933 419.473 385.333C419.473 385.733 420.673 388 422.14 390.267C424.273 393.867 425.606 394.667 429.073 394.667C435.606 394.533 438.806 391.6 438.806 385.333C438.806 379.067 435.606 376.133 429.073 376C425.606 376 424.273 376.8 422.14 380.267Z" fill="#496EEE" fill-opacity="0.24"/>
<path d="M42.5397 380.933C41.6064 381.2 40.8064 383.333 40.8064 385.467C40.8064 388.4 41.6064 389.467 44.1397 390.133C48.0064 391.067 51.4731 388.8 51.4731 385.467C51.4731 381.067 47.2064 378.933 42.5397 380.933Z" fill="#496EEE" fill-opacity="0.24"/>
<path d="M469.606 381.6C468.406 382.267 467.473 384 467.473 385.333C467.473 390.133 475.606 391.6 477.34 387.2C479.073 382.667 474.14 379.067 469.606 381.6Z" fill="#496EEE" fill-opacity="0.24"/>
<path d="M148.14 394.267C139.873 396.533 136.673 408.933 142.94 415.067C151.74 424 166.14 418.267 166.14 406C166.14 398.8 155.873 392.133 148.14 394.267Z" fill="#496EEE" fill-opacity="0.24"/>
<path d="M360.006 395.467C350.273 400.267 350.54 413.333 360.406 418C368.14 421.733 375.34 418.4 378.14 409.867C380.14 404 376.94 397.867 370.806 395.2C365.206 392.933 365.073 392.933 360.006 395.467Z" fill="#496EEE" fill-opacity="0.24"/>
<path d="M105.206 397.333C96.1397 401.067 98.4064 414.933 108.406 416.8C112.006 417.467 113.34 416.933 116.806 413.6C121.873 408.533 121.873 404.8 116.94 399.867C112.94 395.867 110.273 395.333 105.206 397.333Z" fill="#496EEE" fill-opacity="0.24"/>
<path d="M400.94 400.8C399.34 402.8 398.14 405.333 398.14 406.667C398.14 408 399.34 410.533 400.94 412.533C403.073 415.2 404.806 416 408.806 416C414.673 416 418.14 412.533 418.14 406.667C418.14 400.8 414.673 397.333 408.806 397.333C404.806 397.333 403.073 398.133 400.94 400.8Z" fill="#496EEE" fill-opacity="0.24"/>
<path d="M62.9397 402.133C58.8063 406.133 61.7397 413.333 67.473 413.333C68.9397 413.333 71.073 411.867 72.273 410C74.273 406.933 74.273 406.4 72.273 403.333C69.7397 399.467 66.0063 399.067 62.9397 402.133Z" fill="#496EEE" fill-opacity="0.24"/>
<path d="M446.273 404.267C444.806 408.133 446.806 412 450.14 412C454.806 412 456.806 410.4 456.806 406.667C456.806 400.8 448.273 398.933 446.273 404.267Z" fill="#496EEE" fill-opacity="0.24"/>
<path d="M22.1396 406.667C22.1396 407.333 23.073 408 24.1396 408C25.2063 408 26.1396 407.333 26.1396 406.667C26.1396 405.867 25.2063 405.333 24.1396 405.333C23.073 405.333 22.1396 405.867 22.1396 406.667Z" fill="#496EEE" fill-opacity="0.24"/>
<path d="M492.806 406.667C492.806 407.333 493.473 408 494.14 408C494.94 408 495.473 407.333 495.473 406.667C495.473 405.867 494.94 405.333 494.14 405.333C493.473 405.333 492.806 405.867 492.806 406.667Z" fill="#496EEE" fill-opacity="0.24"/>
<path d="M210.806 415.733C204.806 419.467 203.073 422.133 203.073 428C203.073 437.2 212.006 444 220.14 441.333C232.94 437.067 233.606 420.267 221.206 415.2C215.74 412.8 215.606 412.8 210.806 415.733Z" fill="#496EEE" fill-opacity="0.24"/>
<path d="M297.473 415.2C291.206 418 288.54 421.867 288.54 428.133C288.673 434.4 291.34 438.133 297.873 440.933C301.473 442.4 302.806 442.4 306.54 440.8C318.273 436 318.406 420.133 306.54 415.2C301.473 413.067 302.406 413.067 297.473 415.2Z" fill="#496EEE" fill-opacity="0.24"/>
<path d="M166.673 418C156.673 424.933 161.74 440 174.14 440C176.806 440 180.14 439.067 181.74 438C187.473 434 186.806 420.533 180.673 417.333C177.206 415.333 169.74 415.733 166.673 418Z" fill="#496EEE" fill-opacity="0.24"/>
<path d="M337.74 417.467C336.273 418.267 334.406 420.933 333.34 423.467C328.006 436.133 344.54 446.4 353.34 435.867C355.34 433.6 356.806 430.133 356.806 428C356.806 425.867 355.34 422.4 353.34 420.133C350.673 416.933 348.806 416 345.073 416C342.273 416 339.073 416.667 337.74 417.467Z" fill="#496EEE" fill-opacity="0.24"/>
<path d="M126.806 418.933C120.406 422.533 118.94 429.467 123.473 434.267C128.94 440.133 136.406 439.2 140.14 432C142.006 428.4 142.006 427.6 140.14 424C138.94 421.733 136.54 419.333 134.673 418.667C130.54 417.067 130.14 417.067 126.806 418.933Z" fill="#496EEE" fill-opacity="0.24"/>
<path d="M379.606 422.133C378.006 424.133 376.806 426.667 376.806 428C376.806 429.333 378.006 431.867 379.606 433.867C381.74 436.533 383.473 437.333 387.473 437.333C393.34 437.333 396.806 433.867 396.806 428C396.806 422.133 393.34 418.667 387.473 418.667C383.473 418.667 381.74 419.467 379.606 422.133Z" fill="#496EEE" fill-opacity="0.24"/>
<path d="M83.7396 422.933C82.8063 423.867 82.1396 426.133 82.1396 428C82.1396 429.867 82.8063 432.133 83.7396 433.067C87.473 436.8 95.473 433.333 95.473 428C95.473 422.667 87.473 419.2 83.7396 422.933Z" fill="#496EEE" fill-opacity="0.24"/>
<path d="M425.74 423.733C422.806 426.933 422.94 429.733 426.006 432.533C431.206 437.333 438.14 431.6 435.073 425.333C432.94 421.2 428.673 420.4 425.74 423.733Z" fill="#496EEE" fill-opacity="0.24"/>
<path d="M44.1397 426.667C42.9397 428.667 44.673 430.667 46.8064 429.733C47.873 429.333 48.8064 428.533 48.8064 428C48.8064 426.4 44.9397 425.333 44.1397 426.667Z" fill="#496EEE" fill-opacity="0.24"/>
<path d="M470.14 428C470.14 428.667 471.073 429.333 472.14 429.333C473.206 429.333 474.14 428.667 474.14 428C474.14 427.2 473.206 426.667 472.14 426.667C471.073 426.667 470.14 427.2 470.14 428Z" fill="#496EEE" fill-opacity="0.24"/>
<path d="M189.206 439.867C181.606 444.533 182.14 455.2 190.273 459.333C198.006 463.333 206.14 458.267 206.14 449.467C206.006 444.133 204.273 441.2 199.873 438.933C195.873 436.8 194.14 436.933 189.206 439.867Z" fill="#496EEE" fill-opacity="0.24"/>
<path d="M230.54 439.333C226.006 442.533 224.273 449.6 226.806 454.533C233.606 467.733 253.206 460.4 249.606 446C247.606 438.267 237.206 434.667 230.54 439.333Z" fill="#496EEE" fill-opacity="0.24"/>
<path d="M273.74 438.8C272.273 439.6 270.406 442.267 269.34 444.8C264.006 457.467 280.54 467.733 289.34 457.2C291.34 454.933 292.806 451.467 292.806 449.333C292.806 447.2 291.34 443.733 289.34 441.467C286.673 438.267 284.806 437.333 281.073 437.333C278.273 437.333 275.073 438 273.74 438.8Z" fill="#496EEE" fill-opacity="0.24"/>
<path d="M318.806 438.933C313.873 441.733 312.406 444.133 312.406 449.333C312.406 457.333 319.206 462.667 326.406 460.133C331.74 458.267 334.006 455.067 334.006 449.333C334.006 443.733 331.873 440.667 326.94 438.667C322.54 437.067 322.14 437.067 318.806 438.933Z" fill="#496EEE" fill-opacity="0.24"/>
<path d="M144.806 444.267C143.34 446.667 142.14 448.933 142.14 449.333C142.14 449.733 143.34 452 144.806 454.267C146.94 457.867 148.273 458.667 151.873 458.667C160.673 458.667 165.206 449.333 159.606 442.933C158.006 440.933 155.606 440 152.273 440C148.273 440 146.94 440.667 144.806 444.267Z" fill="#496EEE" fill-opacity="0.24"/>
<path d="M359.74 442.667C353.74 448.267 358.006 458.667 366.14 458.667C370.673 458.667 374.54 454.4 374.54 449.333C374.54 441.067 365.74 437.067 359.74 442.667Z" fill="#496EEE" fill-opacity="0.24"/>
<path d="M105.073 444.267C104.14 445.2 103.473 447.467 103.473 449.333C103.473 453.6 105.74 456 109.473 456C112.806 456 116.806 452.133 116.806 448.933C116.806 443.867 108.673 440.667 105.073 444.267Z" fill="#496EEE" fill-opacity="0.24"/>
<path d="M404.006 446C402.006 449.067 402.006 449.6 404.006 452.667C407.873 458.4 414.14 456.267 414.14 449.067C414.14 446.8 413.206 444.933 411.606 444C407.74 442 406.406 442.267 404.006 446Z" fill="#496EEE" fill-opacity="0.24"/>
<path d="M64.8064 449.333C64.8064 451.333 65.4731 452 67.2064 451.733C68.4064 451.467 69.4731 450.4 69.4731 449.333C69.4731 448.267 68.4064 447.2 67.2064 446.933C65.4731 446.667 64.8064 447.333 64.8064 449.333Z" fill="#496EEE" fill-opacity="0.24"/>
<path d="M449.473 448C448.273 450 450.006 452 452.14 451.067C453.206 450.667 454.14 449.867 454.14 449.333C454.14 447.733 450.273 446.667 449.473 448Z" fill="#496EEE" fill-opacity="0.24"/>
<path d="M254.54 461.333C245.473 465.067 247.74 478.933 257.74 480.8C261.34 481.467 262.673 480.933 266.14 477.6C271.206 472.533 271.206 468.8 266.273 463.867C262.273 459.867 259.606 459.333 254.54 461.333Z" fill="#496EEE" fill-opacity="0.24"/>
<path d="M168.673 463.733C166.673 465.467 165.74 467.733 165.74 470.533C165.74 478.133 172.806 481.867 178.54 477.2C183.34 473.467 183.34 467.867 178.673 464.133C174.273 460.667 172.673 460.667 168.673 463.733Z" fill="#496EEE" fill-opacity="0.24"/>
<path d="M209.073 464.4C205.34 468.267 205.34 472 208.94 476.533C212.54 481.2 220.94 481.467 224.006 477.067C228.94 470 225.073 461.333 216.94 461.333C213.473 461.333 211.073 462.267 209.073 464.4Z" fill="#496EEE" fill-opacity="0.24"/>
<path d="M294.273 464.8C292.673 466.8 291.473 469.333 291.473 470.667C291.473 472 292.673 474.533 294.273 476.533C296.406 479.2 298.14 480 302.14 480C308.006 480 311.473 476.533 311.473 470.533C311.473 461.733 299.74 457.867 294.273 464.8Z" fill="#496EEE" fill-opacity="0.24"/>
<path d="M338.94 464.8C337.74 465.867 336.806 468.533 336.806 470.667C336.806 475.467 339.873 478.667 344.673 478.667C349.206 478.667 352.806 474.933 352.806 470.267C352.806 464 343.473 460.267 338.94 464.8Z" fill="#496EEE" fill-opacity="0.24"/>
<path d="M126.806 467.2C124.406 470.667 125.34 474.133 128.94 476.133C134.806 479.2 139.873 469.867 134.54 465.867C131.073 463.333 129.073 463.6 126.806 467.2Z" fill="#496EEE" fill-opacity="0.24"/>
<path d="M383.873 466.267C382.94 466.533 382.14 468.667 382.14 470.8C382.14 473.733 382.94 474.8 385.473 475.467C389.34 476.4 392.806 474.133 392.806 470.8C392.806 466.4 388.54 464.267 383.873 466.267Z" fill="#496EEE" fill-opacity="0.24"/>
<path d="M87.073 468.8C85.2063 470.667 86.1397 473.467 88.5397 473.067C89.7397 472.8 90.8063 471.733 90.8063 470.8C90.8063 468.667 88.4063 467.467 87.073 468.8Z" fill="#496EEE" fill-opacity="0.24"/>
<path d="M427.473 470.667C427.473 471.333 428.673 472 430.273 472C431.74 472 432.54 471.333 432.14 470.667C431.74 469.867 430.406 469.333 429.34 469.333C428.273 469.333 427.473 469.867 427.473 470.667Z" fill="#496EEE" fill-opacity="0.24"/>
<path d="M233.073 486.133C227.206 490.133 230.94 500 238.406 500C241.206 500 246.14 494.933 246.14 492C246.14 489.067 241.206 484 238.406 484C237.073 484 234.673 484.933 233.073 486.133Z" fill="#496EEE" fill-opacity="0.24"/>
<path d="M275.74 486.133C269.873 490.133 273.606 500 281.073 500C283.873 500 288.806 494.933 288.806 492C288.806 489.067 283.873 484 281.073 484C279.74 484 277.34 484.933 275.74 486.133Z" fill="#496EEE" fill-opacity="0.24"/>
<path d="M189.606 488.133C186.406 492.8 189.606 498.667 195.606 498.667C201.473 498.667 204.273 491.6 200.006 487.467C197.073 484.533 192.006 484.8 189.606 488.133Z" fill="#496EEE" fill-opacity="0.24"/>
<path d="M318.406 486.933C316.406 488.933 316.273 494.933 318.406 497.067C320.806 499.467 325.473 498.933 328.273 495.867C330.54 493.333 330.54 492.8 328.673 489.6C326.54 485.6 321.073 484.267 318.406 486.933Z" fill="#496EEE" fill-opacity="0.24"/>
<path d="M149.873 488.133C144.94 490.933 148.806 498.133 154.14 496.267C158.273 494.8 159.073 491.733 156.006 488.8C153.606 486.267 152.94 486.267 149.873 488.133Z" fill="#496EEE" fill-opacity="0.24"/>
<path d="M361.74 489.867C360.273 493.6 362.273 496.133 366.006 495.733C368.673 495.467 369.473 494.667 369.473 492C369.473 489.333 368.673 488.533 366.006 488.267C363.74 488 362.14 488.667 361.74 489.867Z" fill="#496EEE" fill-opacity="0.24"/>
<path d="M107.473 491.733C107.473 493.6 108.94 494.533 110.94 493.733C113.74 492.667 113.206 490.667 110.14 490.667C108.673 490.667 107.473 491.2 107.473 491.733Z" fill="#496EEE" fill-opacity="0.24"/>
<path d="M406.14 492C406.14 492.667 407.073 493.333 408.14 493.333C409.206 493.333 410.14 492.667 410.14 492C410.14 491.2 409.206 490.667 408.14 490.667C407.073 490.667 406.14 491.2 406.14 492Z" fill="#496EEE" fill-opacity="0.24"/>
<path d="M255.74 509.6C252.673 512.667 254.806 518.667 258.94 518.667C260.806 518.667 264.806 515.067 264.806 513.333C264.806 511.6 260.806 508 258.94 508C258.14 508 256.673 508.667 255.74 509.6Z" fill="#496EEE" fill-opacity="0.24"/>
<path d="M171.473 511.333C170.14 512.933 170.14 513.733 171.473 515.2C173.606 517.867 177.073 516.267 176.54 512.933C176.006 509.467 173.74 508.667 171.473 511.333Z" fill="#496EEE" fill-opacity="0.24"/>
<path d="M212.14 510.667C211.74 511.333 211.74 513.2 212.14 514.8C213.473 518.933 220.14 517.867 220.14 513.333C220.14 510.667 219.34 509.867 216.54 509.6C214.673 509.333 212.673 509.867 212.14 510.667Z" fill="#496EEE" fill-opacity="0.24"/>
<path d="M297.74 511.2C296.273 514.933 298.273 517.467 302.006 517.067C304.673 516.8 305.473 516 305.473 513.333C305.473 510.667 304.673 509.867 302.006 509.6C299.74 509.333 298.14 510 297.74 511.2Z" fill="#496EEE" fill-opacity="0.24"/>
<path d="M342.14 513.333C342.14 515.333 342.806 516 344.54 515.733C345.74 515.467 346.806 514.4 346.806 513.333C346.806 512.267 345.74 511.2 344.54 510.933C342.806 510.667 342.14 511.333 342.14 513.333Z" fill="#496EEE" fill-opacity="0.24"/>
<path d="M130.14 513.333C130.14 514 130.806 514.667 131.473 514.667C132.273 514.667 132.806 514 132.806 513.333C132.806 512.533 132.273 512 131.473 512C130.806 512 130.14 512.533 130.14 513.333Z" fill="#496EEE" fill-opacity="0.24"/>
<path d="M236.14 533.333C234.94 535.333 236.673 537.333 238.806 536.4C239.873 536 240.806 535.2 240.806 534.667C240.806 533.067 236.94 532 236.14 533.333Z" fill="#496EEE" fill-opacity="0.24"/>
<path d="M194.14 534.667C194.14 535.333 194.806 536 195.473 536C196.273 536 196.806 535.333 196.806 534.667C196.806 533.867 196.273 533.333 195.473 533.333C194.806 533.333 194.14 533.867 194.14 534.667Z" fill="#496EEE" fill-opacity="0.24"/>
<path d="M278.14 534.4C278.14 536.267 279.606 537.2 281.606 536.4C282.673 536 283.073 535.2 282.673 534.533C281.74 533.067 278.14 532.933 278.14 534.4Z" fill="#496EEE" fill-opacity="0.24"/>
<path d="M322.14 534.667C322.14 535.333 322.806 536 323.473 536C324.273 536 324.806 535.333 324.806 534.667C324.806 533.867 324.273 533.333 323.473 533.333C322.806 533.333 322.14 533.867 322.14 534.667Z" fill="#496EEE" fill-opacity="0.24"/>
</svg>
