<svg width="12" height="16" viewBox="0 0 12 16" fill="none" xmlns="http://www.w3.org/2000/svg">
<path d="M5.35955 0.0116796C3.91802 0.18043 2.69797 0.721836 1.7407 1.62184C0.723364 2.57457 0.152757 3.72418 0.021367 5.07769C-0.0987609 6.33629 0.291655 7.67574 1.09126 8.73043C1.21889 8.89918 1.49669 9.20855 1.70691 9.41949C2.32632 10.0312 2.39389 10.214 2.39389 11.2441C2.39389 11.6238 2.41266 12.0211 2.43143 12.123C2.48024 12.3726 2.65667 12.7031 2.84437 12.9L2.99453 13.0617V13.6558C2.99453 14.0671 3.0133 14.3097 3.05084 14.4503C3.21977 15.0586 3.71905 15.5296 4.36474 15.6878C4.69134 15.7652 7.30412 15.7652 7.63072 15.6878C8.27641 15.5296 8.77569 15.0586 8.94462 14.4503C8.98216 14.3097 9.00093 14.0671 9.00093 13.6523V13.0546L9.10979 12.9457C9.29749 12.7664 9.48144 12.4429 9.5415 12.1898C9.58655 12.014 9.60157 11.7539 9.60157 11.2511C9.60157 10.2035 9.66539 10.0382 10.3186 9.38785C10.9755 8.73394 11.426 8.0484 11.6963 7.28199C12.1993 5.86871 12.0755 4.39215 11.3397 3.03863C10.5138 1.51988 8.9784 0.444102 7.13895 0.0925398C6.77481 0.0257425 5.67864 -0.0234766 5.35955 0.0116796ZM6.70348 1.17184C9.67289 1.58316 11.5236 4.42027 10.5213 7.02184C10.281 7.63707 9.9582 8.10816 9.38384 8.68121C8.91834 9.14527 8.7344 9.40543 8.58424 9.81324L8.47912 10.098H5.99773H3.51634L3.41123 9.81324C3.26482 9.41598 3.06961 9.13473 2.67544 8.74449C2.48774 8.56168 2.25875 8.31559 2.1649 8.19957C0.678317 6.36793 0.948604 3.76285 2.78056 2.24762C3.44501 1.69918 4.33096 1.2984 5.13431 1.18941C5.28822 1.16832 5.45715 1.14371 5.50971 1.13668C5.75372 1.10504 6.34685 1.12262 6.70348 1.17184ZM8.39278 11.6238C8.38152 12.0386 8.34773 12.1195 8.12249 12.2742C8.02114 12.348 7.97984 12.348 5.99773 12.348C4.01562 12.348 3.97433 12.348 3.87297 12.2742C3.64773 12.1195 3.61394 12.0386 3.60268 11.6238L3.58766 11.2406H5.99773H8.4078L8.39278 11.6238ZM7.79214 13.8738C7.78088 14.2886 7.74709 14.3695 7.52185 14.5242C7.4205 14.5945 7.37545 14.598 5.99773 14.598C4.62001 14.598 4.57497 14.5945 4.47361 14.5242C4.24837 14.3695 4.21458 14.2886 4.20332 13.8738L4.1883 13.4906H5.99773H7.80716L7.79214 13.8738Z" fill="white"/>
<path d="M6.28662 2.38824C6.12895 2.47613 5.99756 2.69058 5.99756 2.86988C5.99756 3.01051 6.12895 3.23902 6.25283 3.31637C6.30163 3.34801 6.46305 3.40426 6.60946 3.44293C7.4466 3.65738 8.08854 4.26207 8.32128 5.04957C8.41138 5.35543 8.4752 5.45386 8.63662 5.54527C8.79804 5.64019 9.09085 5.63668 9.25603 5.54527C9.5601 5.36949 9.6014 5.06715 9.39868 4.51519C9.21098 4.00543 8.97448 3.65738 8.53151 3.24254C8.08854 2.82769 7.71689 2.60621 7.17256 2.43043C6.73334 2.2898 6.49309 2.27574 6.28662 2.38824Z" fill="white"/>
</svg>
