<svg width="15" height="23" viewBox="0 0 15 23" fill="none" xmlns="http://www.w3.org/2000/svg">
<path d="M0 20.7V2.3C0 1.035 1.0875 0 2.41667 0H12.0833C13.4125 0 14.5 1.035 14.5 2.3V20.7C14.5 21.965 13.4125 23 12.0833 23H2.41667C1.0875 23 0 21.965 0 20.7Z" fill="#37474F"/>
<path d="M12.0833 1.7251H2.41667C2.05417 1.7251 1.8125 1.9551 1.8125 2.3001V18.9751C1.8125 19.3201 2.05417 19.5501 2.41667 19.5501H12.0833C12.4458 19.5501 12.6875 19.3201 12.6875 18.9751V2.3001C12.6875 1.9551 12.4458 1.7251 12.0833 1.7251Z" fill="#BBDEFB"/>
<path d="M9.0625 20.6997H5.4375V21.8497H9.0625V20.6997Z" fill="#78909C"/>
</svg>
