<svg width="235" height="261" viewBox="0 0 235 261" fill="none" xmlns="http://www.w3.org/2000/svg">
<path d="M167.947 38.976C152.071 43.152 137.867 56.724 132.958 72.036L131.078 77.72H78.2288H25.3799L20.8888 80.388C17.7554 82.244 15.5621 84.68 13.891 88.16L11.4888 93.148V151.264C11.4888 209.264 11.4888 209.38 13.891 213.904C15.3532 216.804 17.9643 219.472 20.7843 221.212L25.3799 223.88H95.2532C152.28 223.88 165.753 223.532 168.469 222.256C172.542 220.4 177.033 215.18 178.495 210.772C179.227 208.684 179.644 194.996 179.644 174.464V141.52H182.151C183.509 141.52 187.687 140.476 191.551 139.2C198.235 136.88 198.34 136.764 197.191 133.864C196.355 131.892 195.415 131.196 194.371 131.66C182.778 136.764 167.111 136.88 157.502 132.008C149.773 128.064 145.073 123.192 140.895 114.608C137.449 107.532 137.344 106.952 137.344 93.96C137.344 82.824 137.762 79.576 139.747 73.892C144.447 60.9 153.847 50.924 165.858 46.168C172.855 43.5 186.329 42.92 192.7 45.24C203.04 48.836 211.5 58.116 214.32 68.904C215.051 71.572 215.573 77.604 215.573 82.36C215.573 91.64 213.067 100.108 208.68 105.212C205.651 108.808 200.22 110.664 197.504 109.04C193.849 106.952 193.744 100.92 197.087 82.36L200.22 65.076L197.087 63.8C184.344 58.928 168.573 63.104 159.278 73.892C151.758 82.592 148.624 99.412 153.011 107.648C155.309 111.94 161.993 116 166.693 116C171.184 116 180.271 110.548 183.613 106.024C186.851 101.5 188 101.036 188 104.4C188 110.432 193.118 116 198.758 116C206.904 116 216.2 108.692 220.482 98.832C222.571 94.192 222.884 91.524 222.989 81.2C222.989 70.412 222.675 68.324 220.273 62.524C215.155 50.46 206.278 42.34 193.849 38.744C187.164 36.772 175.675 36.772 167.947 38.976ZM189.358 70.296C190.611 70.76 190.611 72.384 188.94 81.316C186.224 95.932 182.36 103.24 175.258 107.416C167.947 111.592 159.8 106.604 159.8 97.788C159.8 82.708 170.453 69.6 182.882 69.6C185.598 69.6 188.522 69.832 189.358 70.296ZM128.884 92.568C128.153 99.992 130.347 111.708 133.689 117.972L135.673 121.684L119.275 136.648C100.789 153.584 99.7443 154.28 94.6265 154.28C91.3888 154.28 87.0021 150.684 55.7732 122.148L20.5754 90.132L22.9777 87.928C25.171 85.956 28.4088 85.84 77.3932 85.84H129.511L128.884 92.568ZM40.8377 118.436C52.8488 129.34 62.4577 138.62 62.1443 139.2C61.5177 140.36 19.9488 177.944 18.6954 178.408C18.1732 178.64 17.7554 162.98 17.7554 138.736C17.7554 116.696 18.0688 98.6 18.3821 98.6C18.6954 98.6 28.8265 107.532 40.8377 118.436ZM143.924 131.196C149.147 136.416 156.875 140.012 165.753 141.636L173.378 143.028V160.776C173.378 170.636 173.064 178.64 172.647 178.64C171.915 178.64 159.487 167.62 136.404 146.392L128.049 138.736L133.793 133.168C136.927 130.152 139.642 127.6 139.851 127.6C140.06 127.6 141.835 129.224 143.924 131.196ZM77.811 151.96C85.8532 159.152 91.5977 162.516 96.0888 162.4C100.162 162.284 106.115 158.572 113.844 151.38L122.2 143.608L125.647 146.508C127.422 148.132 138.598 158.224 150.4 169.012L171.811 188.616L172.124 198.244C172.333 205.668 172.02 208.568 170.767 210.772C167.007 217.036 167.529 217.036 93.4777 216.688L25.0665 216.34L21.7243 212.512C18.3821 208.916 18.2777 208.452 18.2777 199.056V189.312L43.3443 166.576C57.0265 154.048 68.411 143.84 68.6199 143.84C68.8288 143.84 72.9021 147.436 77.811 151.96Z" fill="url(#paint0_linear)"/>
<path d="M95.3576 200.332L66.8442 200.68V204.16V207.64H95.5665H124.289V203.58C124.289 201.376 124.184 199.636 124.08 199.752C123.871 199.984 110.92 200.216 95.3576 200.332Z" fill="#21EFFC"/>
<defs>
<linearGradient id="paint0_linear" x1="117.239" y1="223.88" x2="117.239" y2="37.2928" gradientUnits="userSpaceOnUse">
<stop stop-color="#21EFFC"/>
<stop offset="1" stop-color="#048FCA"/>
</linearGradient>
</defs>
</svg>
